<?xml version="1.0" encoding="utf-8"?>
<!-- Generator: Adobe Illustrator 16.0.4, SVG Export Plug-In . SVG Version: 6.00 Build 0)  -->
<!DOCTYPE svg PUBLIC "-//W3C//DTD SVG 1.1//EN" "http://www.w3.org/Graphics/SVG/1.1/DTD/svg11.dtd">
<svg version="1.1" id="Layer_1" xmlns="http://www.w3.org/2000/svg" xmlns:xlink="http://www.w3.org/1999/xlink" x="0px" y="0px"
	 width="580.618px" height="154.769px" viewBox="0 0 580.618 154.769" enable-background="new 0 0 580.618 154.769"
	 xml:space="preserve">
<g>
	<g>
		<g>
			<path fill-rule="evenodd" clip-rule="evenodd" fill="#2CAAE1" d="M551.469,101.22c0.518,1.359,0.32,1.457-0.432,0.211
				l-20.824-34.475c-1.123-1.877-2.93-1.873-4.055,0.021l-20.373,34.67c-0.742,1.26-0.938,1.166-0.439-0.199l13.908-37.818
				c0.752-2.051-0.373-3.471-2.541-3.164l-39.748,5.637c-1.438,0.203-1.48,0-0.113-0.457l38.16-12.672
				c2.074-0.688,2.469-2.477,0.881-3.969l-29.18-27.65c-1.055-1.01-0.928-1.166,0.287-0.371l33.68,22.008
				c1.816,1.191,3.451,0.393,3.639-1.787l3.357-40.117c0.129-1.449,0.34-1.449,0.477,0l3.836,40.117
				c0.207,2.18,1.852,2.955,3.662,1.75l33.375-22.377c1.217-0.811,1.342-0.646,0.299,0.365L540.434,48.97
				c-1.572,1.518-1.156,3.285,0.93,3.957l38.238,12.207c1.391,0.441,1.348,0.652-0.088,0.465l-39.867-5.18
				c-2.156-0.271-3.291,1.152-2.502,3.199L551.469,101.22z"/>
			<path fill-rule="evenodd" clip-rule="evenodd" fill="#020202" d="M212.383,149.776l0.521-6.199
				c0.092-1.055,0.961-1.877,2.027-1.877c0.15,0,0.291,0.012,0.439,0.043c10.094,2.598,14.973,2.145,22.504,2.145
				c6.93,0,14.684-4.73,14.684-12.141c0-7.412-8.402-9.309-14.684-12.152c-14.207-6.463-25.492-9.463-25.492-23.814
				c0-14.502,11.449-23.338,25.492-23.338c9.109,0,15.576,0.154,23.676,3.236c0.777,0.305,1.322,1.062,1.322,1.955l-0.51,5.836
				c0,1.15-0.918,2.082-2.053,2.082c-0.16,0-0.334-0.027-0.498-0.066c-9.979-2.609-14.543-2.164-21.938-2.164
				c-7.09,0-14.891,4.73-14.891,12.141c0,7.422,8.449,9.467,14.891,12.145c13.711,6.004,25.334,9.473,25.334,23.83
				c0,14.506-11.463,23.332-25.334,23.332c-9.316,0-16.119-0.158-24.266-3.275C212.938,151.2,212.449,150.552,212.383,149.776z
				 M449.998,143.296v-27.068h-29.467c-7.09,0-12.744,6.332-12.744,13.457c0,7.27,5.654,13.611,12.744,13.611H449.998z
				 M437.402,83.739c-6.672,0-14.668-0.283-21.891,1.211c-1.414,0.02-2.328-0.902-2.328-2.033l-0.51-5.881
				c0-0.898,0.58-1.664,1.393-1.934c6.348-1.879,13.613-1.879,21.203-1.879c13.896,0,25.357,9.91,25.357,24.141v54.475
				c-0.012,1.217-0.914,2.121-2.051,2.121l-35.9,0.012c-14.057,0-25.506-10.061-25.506-24.287c0-14.082,11.449-24.135,25.506-24.135
				h27.322v-8.186C449.998,90.083,444.344,83.739,437.402,83.739z M320.848,145.499l0.523,5.912c0,1.152-0.836,2.033-1.891,2.115
				l-5.396,0.455c-14.096,1.08-25.557-10.059-25.557-24.133V54.735c0.014-0.996,0.742-1.859,1.752-2.014l6.719-1.451
				c1.219,0.018,2.133,0.932,2.133,2.057l0.012,19.908h20.385c1.031,0.098,1.844,0.973,1.844,2.031l-0.523,6.381
				c0,1.125-0.799,1.994-1.818,2.111h-19.887v46.09c0,7.27,5.666,13.611,12.795,13.611h6.975
				C320.002,143.513,320.848,144.403,320.848,145.499z M389.508,84.06c-13.186-0.164-19.285-0.152-19.285-0.152
				c-6.961-0.148-13.844,6.338-13.844,13.611v54.355c0,1.182-0.928,2.098-2.053,2.098h-6.615c-1.125,0-2.043-0.916-2.043-2.041
				V97.519c0-14.072,10.979-24.748,25.566-24.283c0,0,5.703,0,18.98,0.758c1.059,0.09,1.869,0.969,1.869,2.041l-0.516,5.984
				C391.568,83.144,390.633,84.06,389.508,84.06z M52.842,143.296v-27.057H23.373c-7.104,0-12.752,6.338-12.752,13.451
				c0,7.271,5.648,13.605,12.752,13.605H52.842z M93.391,52.759l6.84-1.426l0.301-0.029c1.137,0,2.041,0.916,2.041,2.047
				l0.021,98.494c-0.021,1.211-0.926,2.127-2.062,2.127h-6.725c-1.076,0-1.957-0.83-2.027-1.889V54.595
				C91.85,53.716,92.484,52.956,93.391,52.759z M183.213,97.519c0,7.271-5.654,13.457-12.596,13.457h-29.596V97.519
				c0-7.273,5.643-13.611,12.758-13.611h16.838C177.559,83.907,183.213,90.245,183.213,97.519z M40.258,83.759
				c-6.686,0-14.682-0.289-21.914,1.199c-1.402,0.016-2.316-0.898-2.316-2.029l-0.523-5.881c0-0.898,0.586-1.662,1.391-1.934
				c6.363-1.879,13.629-1.879,21.219-1.879c13.895,0,25.352,9.902,25.352,24.137v54.473c0,1.211-0.924,2.127-2.035,2.127
				l-35.912,0.01C11.447,153.981,0,143.923,0,129.69c0-14.076,11.447-24.129,25.518-24.129h27.324v-8.189
				C52.842,90.103,47.188,83.759,40.258,83.759z M182.195,143.192l0.508,5.688c0,0.873-0.543,1.625-1.32,1.916
				c-8.029,3.023-16.361,3.186-25.492,3.186c-14.059,0-25.52-10.059-25.52-24.133v-32.33c0-14.232,11.461-24.283,25.52-24.283
				h12.594c13.906,0,25.355,10.051,25.355,24.283c0,14.072-11.449,24.133-25.355,24.133h-27.521v8.197
				c0,7.113,5.656,13.447,12.76,13.447c7.371,0,15.957,0.445,25.98-2.098c0.141-0.033,0.291-0.047,0.451-0.047
				C181.279,141.151,182.195,142.075,182.195,143.192z"/>
		</g>
	</g>
</g>
</svg>
