<?xml version="1.0" encoding="utf-8"?>
<!-- Generator: Adobe Illustrator 16.0.4, SVG Export Plug-In . SVG Version: 6.00 Build 0)  -->
<!DOCTYPE svg PUBLIC "-//W3C//DTD SVG 1.1//EN" "http://www.w3.org/Graphics/SVG/1.1/DTD/svg11.dtd">
<svg version="1.1" id="Layer_1" xmlns="http://www.w3.org/2000/svg" xmlns:xlink="http://www.w3.org/1999/xlink" x="0px" y="0px"
	 width="637.754px" height="170px" viewBox="-37.947 -5.115 637.754 170" enable-background="new -37.947 -5.115 637.754 170"
	 xml:space="preserve">
<g>
	<g>
		<g>
			<path fill="#2CAAE1" d="M542.09,103.719c0.518,1.358,0.32,1.456-0.432,0.211l-20.824-34.476c-1.123-1.877-2.93-1.873-4.055,0.021
				l-20.373,34.67c-0.742,1.26-0.939,1.166-0.439-0.199l13.908-37.818c0.752-2.051-0.373-3.471-2.541-3.164l-39.748,5.638
				c-1.438,0.203-1.48,0-0.113-0.457l38.16-12.672c2.074-0.688,2.469-2.478,0.881-3.97l-29.18-27.649
				c-1.055-1.01-0.928-1.166,0.287-0.371l33.68,22.008c1.816,1.191,3.451,0.393,3.639-1.787l3.357-40.117
				c0.129-1.448,0.34-1.448,0.477,0l3.836,40.117c0.207,2.18,1.852,2.955,3.662,1.75l33.375-22.377
				c1.217-0.811,1.342-0.646,0.299,0.365l-28.891,28.027c-1.572,1.518-1.156,3.284,0.93,3.956l38.238,12.207
				c1.391,0.441,1.348,0.652-0.088,0.466l-39.867-5.181c-2.156-0.271-3.291,1.152-2.502,3.199L542.09,103.719z"/>
			<path fill="#020202" d="M203.003,152.274l0.521-6.199c0.092-1.055,0.961-1.877,2.027-1.877c0.15,0,0.291,0.012,0.439,0.043
				c10.094,2.598,14.973,2.146,22.504,2.146c6.93,0,14.684-4.73,14.684-12.142c0-7.412-8.402-9.309-14.684-12.151
				c-14.207-6.464-25.492-9.464-25.492-23.814c0-14.502,11.449-23.338,25.492-23.338c9.109,0,15.576,0.154,23.676,3.236
				c0.777,0.305,1.322,1.062,1.322,1.954l-0.51,5.837c0,1.149-0.918,2.081-2.053,2.081c-0.16,0-0.334-0.026-0.498-0.065
				c-9.979-2.609-14.543-2.164-21.938-2.164c-7.09,0-14.891,4.729-14.891,12.141c0,7.422,8.449,9.468,14.891,12.146
				c13.711,6.004,25.334,9.473,25.334,23.83c0,14.506-11.463,23.332-25.334,23.332c-9.316,0-16.119-0.158-24.266-3.275
				C203.559,153.698,203.07,153.05,203.003,152.274z"/>
			<path fill="#020202" d="M440.62,145.794v-27.067h-29.467c-7.09,0-12.744,6.332-12.744,13.457c0,7.27,5.654,13.61,12.744,13.61
				H440.62L440.62,145.794z M428.024,86.237c-6.672,0-14.668-0.283-21.893,1.211c-1.414,0.021-2.328-0.902-2.328-2.033l-0.51-5.881
				c0-0.897,0.58-1.664,1.395-1.934c6.348-1.879,13.611-1.879,21.201-1.879c13.896,0,25.357,9.909,25.357,24.141v54.475
				c-0.012,1.218-0.914,2.121-2.051,2.121l-35.9,0.013c-14.057,0-25.506-10.062-25.506-24.287c0-14.082,11.449-24.136,25.506-24.136
				h27.322v-8.186C440.62,92.581,434.965,86.237,428.024,86.237z"/>
			<path fill="#020202" d="M311.469,147.997l0.523,5.912c0,1.152-0.836,2.033-1.891,2.115l-5.396,0.455
				c-14.097,1.08-25.558-10.06-25.558-24.133V57.233c0.014-0.996,0.742-1.859,1.752-2.014l6.72-1.451
				c1.219,0.018,2.133,0.932,2.133,2.057l0.012,19.908h20.385c1.031,0.098,1.844,0.973,1.844,2.031l-0.523,6.381
				c0,1.125-0.799,1.994-1.816,2.11h-19.888v46.091c0,7.27,5.666,13.61,12.796,13.61h6.975
				C310.624,146.011,311.469,146.901,311.469,147.997z"/>
			<path fill="#020202" d="M380.129,86.558c-13.186-0.164-19.285-0.152-19.285-0.152C353.883,86.258,347,92.744,347,100.017v54.354
				c0,1.183-0.928,2.099-2.053,2.099h-6.615c-1.125,0-2.043-0.916-2.043-2.041v-54.412c0-14.072,10.979-24.748,25.566-24.283
				c0,0,5.703,0,18.979,0.758c1.061,0.09,1.869,0.969,1.869,2.041l-0.516,5.984C382.19,85.642,381.254,86.558,380.129,86.558z"/>
			<path fill="#020202" d="M84.012,55.257l6.84-1.426l0.301-0.028c1.137,0,2.041,0.916,2.041,2.047l0.021,98.494
				c-0.021,1.211-0.926,2.127-2.062,2.127h-6.725c-1.076,0-1.957-0.83-2.027-1.89V57.094C82.471,56.214,83.104,55.454,84.012,55.257
				z"/>
			<path fill="#020202" d="M43.462,145.794v-27.057H13.994c-7.104,0-12.752,6.338-12.752,13.451c0,7.271,5.648,13.604,12.752,13.604
				L43.462,145.794L43.462,145.794z M30.878,86.257c-6.686,0-14.682-0.288-21.914,1.199c-1.402,0.017-2.316-0.897-2.316-2.028
				l-0.523-5.882c0-0.897,0.586-1.662,1.391-1.934c6.363-1.879,13.629-1.879,21.219-1.879c13.895,0,25.352,9.902,25.352,24.137
				v54.474c0,1.211-0.924,2.127-2.035,2.127l-35.912,0.01c-14.073-0.001-25.52-10.06-25.52-24.292
				c0-14.076,11.447-24.129,25.518-24.129h27.324V99.87C43.462,92.601,37.809,86.257,30.878,86.257z"/>
			<path fill="#020202" d="M159.105,124.15c13.906,0,25.355-10.062,25.355-24.133c0-14.232-11.449-24.283-25.355-24.283h-12.594
				c-14.059,0-25.52,10.051-25.52,24.283v32.33c0,14.073,11.461,24.133,25.52,24.133c9.131,0,17.463-0.163,25.492-3.187
				c0.777-0.291,1.32-1.043,1.32-1.916l-0.508-5.688c0-1.117-0.916-2.041-2.04-2.041c-0.16,0-0.31,0.014-0.451,0.047
				c-10.023,2.543-18.609,2.098-25.98,2.098c-7.104,0-12.76-6.334-12.76-13.446v-8.197H159.105z M131.642,100.017
				c0-7.273,5.643-13.611,12.758-13.611h16.838c6.942-0.001,12.596,6.337,12.596,13.611c0,7.271-5.654,13.457-12.596,13.457h-29.596
				V100.017z"/>
		</g>
	</g>
</g>
</svg>
