<?xml version="1.0" encoding="utf-8"?>
<!-- Generator: Adobe Illustrator 16.0.4, SVG Export Plug-In . SVG Version: 6.00 Build 0)  -->
<!DOCTYPE svg PUBLIC "-//W3C//DTD SVG 1.1//EN" "http://www.w3.org/Graphics/SVG/1.1/DTD/svg11.dtd">
<svg version="1.1" id="Layer_1" xmlns="http://www.w3.org/2000/svg" xmlns:xlink="http://www.w3.org/1999/xlink" x="0px" y="0px"
	 width="170.667px" height="71.833px" viewBox="0 0 170.667 71.833" enable-background="new 0 0 170.667 71.833"
	 xml:space="preserve">
<g>
	<g>
		<g>
			<path fill-rule="evenodd" clip-rule="evenodd" fill="#9C9B9B" d="M86.931,38.301c0-10.547,0.002-21.096-0.002-31.643
				c-0.001-1.65-0.121-1.764-1.779-1.768c-2.569-0.007-5.139-0.005-7.708,0c-1.827,0.002-1.906,0.079-1.907,1.912
				c-0.003,7.031-0.001,14.062-0.001,21.094c0,7.122-0.002,14.245,0.001,21.366c0.001,1.734,0.124,1.863,1.831,1.861
				c3.188-0.002,6.378-0.008,9.567-0.012c0-4.148,0-8.295,0-12.443C86.931,38.555,86.931,38.434,86.931,38.301z"/>
			<path fill-rule="evenodd" clip-rule="evenodd" fill="#D1D1D2" d="M106.343,41.922c-0.005-1.682-0.11-1.793-1.759-1.795
				c-5.273-0.006-10.548-0.002-15.82-0.002c-1.696-0.002-1.821-0.006-1.831-1.457c0,4.148,0,8.295,0,12.443
				c5.87-0.008,11.74-0.014,17.609-0.025c1.451-0.004,1.793-0.359,1.799-1.863C106.352,46.789,106.35,44.355,106.343,41.922z"/>
		</g>
		<g>
			<path fill-rule="evenodd" clip-rule="evenodd" fill="#75973D" d="M55.198,16.02c-2.676,0-5.097,0-7.728,0
				c0,0.576,0,1.096,0,1.617c0,10.279,0,20.557-0.001,30.834c0,2.412-0.213,2.621-2.608,2.623c-1.849,0-3.696,0-5.545,0
				c-2.234-0.002-2.502-0.258-2.505-2.457c-0.004-4.777-0.001-9.557-0.001-14.334c0-5.545,0-11.091,0-16.636
				c0-0.492,0-0.985,0-1.591c-2.574,0-5.061,0-7.728,0c0,0.622,0,1.192,0,1.764c0,10.414,0.001,20.826-0.001,31.24
				c0,1.828-0.185,2.01-2.004,2.012c-2.479,0.004-4.959,0.008-7.438,0c-1.631-0.008-1.876-0.234-1.878-1.887
				c-0.012-7.121,0.01-14.244-0.012-21.366c-0.021-6.941-0.085-13.881-0.12-20.82c-0.01-1.916,0.205-2.124,2.056-2.124
				c12.982-0.001,25.966-0.004,38.948,0.001c4.677,0.002,7.876,3.204,7.87,7.887c-0.015,12.081-0.041,24.162-0.063,36.242
				c-0.004,1.793-0.268,2.064-2.003,2.066c-2.479,0.004-4.959,0.008-7.438,0c-1.479-0.006-1.798-0.33-1.799-1.846
				c-0.004-10.459-0.002-20.917-0.002-31.376C55.198,17.296,55.198,16.722,55.198,16.02z"/>
			<path fill-rule="evenodd" clip-rule="evenodd" fill="#98CA3C" d="M66.499,16.856C66.484,27.603,66.46,38.35,66.44,49.098
				c-0.004,1.746-0.268,2.01-2.004,2.014c-2.479,0.002-4.958,0.006-7.438-0.002c-1.479-0.004-1.798-0.32-1.799-1.797
				c-0.004-10.184-0.002-20.368-0.002-30.551c0-0.559,0-1.118,0-1.801"/>
			<path fill-rule="evenodd" clip-rule="evenodd" fill="#98CA3C" d="M47.5,16.754c-0.015,10.778-0.037,21.558-0.057,32.337
				c-0.004,1.75-0.253,2.016-1.895,2.02c-2.345,0.002-4.689,0.006-7.035-0.002c-1.399-0.004-1.7-0.32-1.701-1.801
				C36.808,39.094,36.81,28.88,36.81,18.666c0-0.56,0-1.121,0-1.807"/>
			<path fill-rule="evenodd" clip-rule="evenodd" fill="#98CA3C" d="M29.174,16.855c-0.015,10.748-0.038,21.494-0.06,32.242
				c-0.004,1.746-0.271,2.01-2.023,2.014c-2.504,0.002-5.008,0.006-7.513-0.002c-1.494-0.004-1.816-0.32-1.816-1.797
				c-0.004-10.184-0.002-20.368-0.002-30.551c0-0.559,0-1.118,0-1.801"/>
			<rect x="17.76" y="16.076" fill-rule="evenodd" clip-rule="evenodd" fill="#98CA3C" width="11.414" height="1.738"/>
			<rect x="36.81" y="16.076" fill-rule="evenodd" clip-rule="evenodd" fill="#98CA3C" width="10.689" height="1.738"/>
			<rect x="55.198" y="15.987" fill-rule="evenodd" clip-rule="evenodd" fill="#98CA3C" width="11.306" height="1.738"/>
		</g>
		<g>
			<path fill-rule="evenodd" clip-rule="evenodd" fill="#CF4645" d="M120.838,22.218c5.378,0,10.544,0,15.927,0
				c0-0.589,0-1.111,0-1.635c0-4.643-0.005-9.286,0.003-13.928c0.003-1.614,0.161-1.763,1.798-1.767
				c2.705-0.007,5.41,0.022,8.113-0.013c1.146-0.015,1.639,0.467,1.638,1.609c-0.011,14.334-0.012,28.668,0.001,43.002
				c0.002,1.242-0.592,1.66-1.758,1.646c-2.658-0.033-5.318-0.004-7.978-0.014c-1.516-0.004-1.81-0.291-1.813-1.83
				c-0.01-4.732-0.004-9.465-0.004-14.199c0-0.533,0-1.066,0-1.727c-5.318,0-10.512,0-15.927,0c0,0.529,0,1.051,0,1.574
				c0,4.824-0.037,9.646,0.023,14.469c0.018,1.305-0.422,1.766-1.714,1.736c-2.702-0.064-5.409-0.057-8.112-0.004
				c-1.188,0.023-1.567-0.459-1.565-1.607c0.022-14.379,0.023-28.758-0.001-43.137c-0.003-1.102,0.363-1.542,1.484-1.523
				c2.749,0.046,5.5,0.058,8.248-0.005c1.232-0.028,1.67,0.408,1.656,1.647c-0.05,4.643-0.02,9.285-0.02,13.928
				C120.838,20.974,120.838,21.508,120.838,22.218z"/>
			<rect x="120.838" y="22.218" fill-rule="evenodd" clip-rule="evenodd" fill="#EF4749" width="15.927" height="11.146"/>
		</g>
	</g>
	<text transform="matrix(1 0 0 1 2.6465 66.8721)" fill="#2D2D2D" font-family="'Outage-Regular'" font-size="9">Liga Mexicana de Hackathones</text>
</g>
</svg>
