<?xml version="1.0" encoding="utf-8"?>
<!-- Generator: Adobe Illustrator 16.0.4, SVG Export Plug-In . SVG Version: 6.00 Build 0)  -->
<!DOCTYPE svg PUBLIC "-//W3C//DTD SVG 1.1//EN" "http://www.w3.org/Graphics/SVG/1.1/DTD/svg11.dtd">
<svg version="1.1" id="svg4472" xmlns:svg="http://www.w3.org/2000/svg" xmlns:rdf="http://www.w3.org/1999/02/22-rdf-syntax-ns#"
	 xmlns="http://www.w3.org/2000/svg" xmlns:xlink="http://www.w3.org/1999/xlink" x="0px" y="0px" width="774.369px" height="266px"
	 viewBox="0 0 774.369 266" enable-background="new 0 0 774.369 266" xml:space="preserve">
<g id="Page-1" sketch:type="MSPage">
	<g id="Group" sketch:type="MSShapeGroup">
		<path id="Shape" d="M15.01,76.85h12.405v28.075c11.102-16.324,26.771-31.34,52.235-31.34c30.689,0,61.376,24.811,61.376,65.944
			v0.657c0,41.134-31.34,66.595-61.376,66.595c-25.464,0-41.788-14.359-52.235-30.033V244H15.01V76.85L15.01,76.85z
			 M127.314,140.837L127.314,140.837c0-33.955-22.853-54.847-49.621-54.847c-26.118,0-51.585,22.199-51.585,54.196v0.65
			c0,32.646,25.467,54.192,51.585,54.192C105.115,194.379,127.314,174.791,127.314,140.837L127.314,140.837z"/>
		<path id="Shape_1_" d="M317.974,176.098v27.419h-12.405V22h12.405v82.925c11.101-16.324,26.771-31.34,52.235-31.34
			c30.689,0,61.378,24.811,61.378,65.944v0.657c0,41.134-31.346,66.595-61.378,66.595
			C344.745,206.131,328.422,191.765,317.974,176.098L317.974,176.098z M418.529,140.837L418.529,140.837
			c0-33.955-22.853-54.847-49.627-54.847c-26.118,0-51.582,22.199-51.582,54.196v0.65c0,32.646,25.464,54.192,51.582,54.192
			C396.327,194.379,418.529,174.791,418.529,140.837L418.529,140.837z"/>
		<path id="Shape_2_" d="M468.15,176.098v27.419h-12.408V22h12.408v82.925c11.102-16.324,26.769-31.34,52.235-31.34
			c30.689,0,61.379,24.811,61.379,65.944v0.657c0,41.134-31.346,66.595-61.379,66.595
			C494.919,206.131,478.595,191.765,468.15,176.098L468.15,176.098z M568.706,140.837L568.706,140.837
			c0-33.955-22.853-54.847-49.627-54.847c-26.118,0-51.579,22.199-51.579,54.196v0.65c0,32.646,25.461,54.192,51.579,54.192
			C546.504,194.379,568.706,174.791,568.706,140.837L568.706,140.837z"/>
		<path id="Shape_3_" d="M605.919,22h12.408v180.866h-12.408V22L605.919,22z"/>
		<path id="Shape_4_" d="M178.899,153.245c5.222,26.768,26.118,41.784,48.317,41.784c19.588,0,33.301-8.487,43.745-19.588
			l8.49,7.186c-13.059,13.71-28.079,24.154-52.235,24.154c-33.954-0.65-62.683-26.769-62.683-66.595v-0.657
			c0-36.562,26.118-65.944,60.072-65.944c28.729,0,48.971,18.935,55.5,46.356c0.65,1.96,0.65,3.265,1.304,5.225L178.899,153.245
			L178.899,153.245z M267.046,117.983c-5.879-18.281-19.588-33.3-42.441-33.3c-24.813,0-44.402,20.896-46.359,48.971v7.833
			L267.046,117.983L267.046,117.983z"/>
		<path id="Shape_5_" d="M656.196,153.245c5.223,26.768,26.117,41.784,48.32,41.784c19.588,0,33.297-8.487,43.748-19.588
			l8.487,7.186c-13.059,13.71-28.075,24.154-52.235,24.154c-33.304,0-62.029-26.769-62.029-65.944v-0.65
			c0-36.569,26.117-65.951,60.071-65.951c28.726,0,48.971,18.938,55.5,46.359c0.65,1.961,0.65,3.265,1.301,5.226L656.196,153.245
			L656.196,153.245z M744.344,117.983c-5.873-18.281-19.589-33.3-42.441-33.3c-24.811,0-44.398,20.896-46.356,48.971v7.833
			L744.344,117.983L744.344,117.983z"/>
	</g>
</g>
</svg>
