<?xml version="1.0" encoding="utf-8"?>
<!-- Generator: Adobe Illustrator 16.0.4, SVG Export Plug-In . SVG Version: 6.00 Build 0)  -->
<!DOCTYPE svg PUBLIC "-//W3C//DTD SVG 1.1//EN" "http://www.w3.org/Graphics/SVG/1.1/DTD/svg11.dtd">
<svg version="1.1" id="Layer_2" xmlns="http://www.w3.org/2000/svg" xmlns:xlink="http://www.w3.org/1999/xlink" x="0px" y="0px"
	 width="697.335px" height="673.572px" viewBox="0 0 697.335 673.572" enable-background="new 0 0 697.335 673.572"
	 xml:space="preserve">
<polygon fill="#1D567D" points="288.35,284.84 223.112,284.875 190.46,228.21 223.047,171.51 288.285,171.474 320.937,228.138 "/>
<polygon fill="#5BA3D9" points="285.421,399.839 220.183,399.876 187.532,343.21 220.119,286.51 285.356,286.474 318.008,343.138 
	"/>
<polygon fill="#1D567D" points="286.921,517.173 221.683,517.21 189.031,460.544 221.618,403.844 286.856,403.808 319.507,460.472 
	"/>
<polygon fill="#5BA3D9" points="387.518,458.526 322.279,458.563 289.627,401.897 322.214,345.197 387.452,345.161 420.104,401.825 
	"/>
<polygon fill="#5BA3D9" points="489.851,401.825 424.612,401.862 391.96,345.196 424.548,288.496 489.785,288.46 522.437,345.124 
	"/>
<polygon fill="#1D567D" points="488.017,285.84 422.778,285.875 390.126,229.21 422.714,172.51 487.951,172.474 520.603,229.138 "/>
<polygon fill="#5BA3D9" points="489.756,169.659 424.518,169.695 391.865,113.03 424.453,56.33 489.69,56.293 522.342,112.958 "/>
<polygon fill="#1D567D" points="388.255,226.36 323.017,226.396 290.364,169.731 322.952,113.031 388.189,112.995 420.841,169.659 
	"/>
<polygon fill="#222B5E" points="265.103,365.495 240.46,365.509 228.127,344.175 240.436,322.827 265.079,322.813 277.412,344.147 
	"/>
<polygon fill="#222B5E" points="266.603,481.162 241.96,481.176 229.627,459.842 241.936,438.494 266.579,438.48 278.912,459.814 
	"/>
<polygon fill="#222B5E" points="368.436,424.161 343.793,424.175 331.46,402.841 343.77,381.493 368.412,381.479 380.745,402.813 
	"/>
<polygon fill="#222B5E" points="468.603,366.995 443.96,367.009 431.627,345.675 443.937,324.327 468.579,324.313 480.912,345.647 
	"/>
<polygon fill="#222B5E" points="468.769,250.329 444.126,250.342 431.793,229.008 444.103,207.661 468.745,207.647 481.078,228.981 
	"/>
<polygon fill="#222B5E" points="367.936,191.662 343.293,191.675 330.96,170.341 343.27,148.994 367.912,148.98 380.245,170.314 "/>
<polygon fill="#222B5E" points="469.437,134.329 444.794,134.342 432.461,113.008 444.771,91.661 469.413,91.647 481.746,112.981 
	"/>
<polygon fill="#222B5E" points="268.437,251.162 243.794,251.175 231.46,229.841 243.77,208.494 268.412,208.48 280.746,229.814 "/>
<ellipse fill="#222B5E" cx="328.353" cy="242.244" rx="4.083" ry="3.917"/>
<ellipse fill="#222B5E" cx="381.52" cy="245.078" rx="4.083" ry="3.917"/>
<ellipse fill="#222B5E" cx="396.354" cy="296.077" rx="4.083" ry="3.917"/>
<ellipse fill="#222B5E" cx="377.436" cy="312.077" rx="4.083" ry="3.918"/>
<ellipse fill="#222B5E" cx="390.126" cy="329.411" rx="4.083" ry="3.916"/>
<ellipse fill="#222B5E" cx="336.52" cy="329.41" rx="4.083" ry="3.917"/>
<ellipse fill="#222B5E" cx="331.073" cy="306.062" rx="4.083" ry="3.918"/>
<ellipse fill="#222B5E" cx="318.008" cy="295.078" rx="4.083" ry="3.917"/>
<line stroke="#222B5E" stroke-width="3" stroke-miterlimit="10" x1="271.77" y1="238.328" x2="329.27" y2="275.494"/>
<line fill="none" stroke="#222B5E" stroke-width="3" stroke-miterlimit="10" x1="330.104" y1="274.328" x2="318.008" y2="295.078"/>
<line fill="none" stroke="#222B5E" stroke-width="3" stroke-miterlimit="10" x1="271.77" y1="334.388" x2="309.312" y2="312.078"/>
<line fill="none" stroke="#222B5E" stroke-width="3" stroke-miterlimit="10" x1="308.152" y1="312.768" x2="298.187" y2="295.078"/>
<line fill="none" stroke="#222B5E" stroke-width="3" stroke-miterlimit="10" x1="298.75" y1="296.077" x2="328.354" y2="243.036"/>
<line fill="none" stroke="#222B5E" stroke-width="3" stroke-miterlimit="10" x1="353.937" y1="297.161" x2="353.937" y2="186.286"/>
<line fill="none" stroke="#222B5E" stroke-width="3" stroke-miterlimit="10" x1="396.354" y1="296.077" x2="352.312" y2="296.077"/>
<line fill="none" stroke="#222B5E" stroke-width="3" stroke-miterlimit="10" x1="381.52" y1="245.078" x2="353.937" y2="245.078"/>
<line fill="none" stroke="#222B5E" stroke-width="3" stroke-miterlimit="10" x1="377.436" y1="312.078" x2="377.436" y2="272.161"/>
<line fill="none" stroke="#222B5E" stroke-width="3" stroke-miterlimit="10" x1="377.436" y1="273.536" x2="449.312" y2="234.536"/>
<line fill="none" stroke="#222B5E" stroke-width="3" stroke-miterlimit="10" x1="356.103" y1="381.486" x2="356.103" y2="305.536"/>
<line fill="none" stroke="#222B5E" stroke-width="3" stroke-miterlimit="10" x1="356.103" y1="329.411" x2="336.52" y2="329.41"/>
<line fill="none" stroke="#222B5E" stroke-width="3" stroke-miterlimit="10" x1="331.072" y1="306.062" x2="357.312" y2="306.062"/>
<line fill="none" stroke="#222B5E" stroke-width="3" stroke-miterlimit="10" x1="390.126" y1="329.411" x2="399.812" y2="312.078"/>
<line fill="none" stroke="#222B5E" stroke-width="3" stroke-miterlimit="10" x1="398.988" y1="313.551" x2="440.062" y2="337.286"/>
<rect x="67.812" y="560.161" fill="none" width="579" height="52"/>
<text transform="matrix(1 0 0 1 140.1777 605.7607)" fill="#222B5E" font-family="'Tahoma-Bold'" font-size="60">SAISD - SAITE</text>
<rect x="67.02" y="649.753" fill="none" width="614" height="69"/>
<text transform="matrix(1 0 0 1 81.124 663.4326)" display="none"><tspan x="0" y="0" display="inline" fill="#1D567D" font-family="'Tahoma'" font-size="18">Sociedad de alumnos de las carreras de Ingeniero en Sistemas Digitales y </tspan><tspan x="98.161" y="21.601" display="inline" fill="#1D567D" font-family="'Tahoma'" font-size="18">Robótica e Ingeniero en Tecnologías Electrónicas</tspan></text>
</svg>
