<?xml version="1.0" encoding="utf-8"?>
<!-- Generator: Adobe Illustrator 16.0.4, SVG Export Plug-In . SVG Version: 6.00 Build 0)  -->
<!DOCTYPE svg PUBLIC "-//W3C//DTD SVG 1.1//EN" "http://www.w3.org/Graphics/SVG/1.1/DTD/svg11.dtd">
<svg version="1.1" id="Layer_1" xmlns="http://www.w3.org/2000/svg" xmlns:xlink="http://www.w3.org/1999/xlink" x="0px" y="0px"
	 width="34px" height="40.42px" viewBox="4 4.755 34 40.42" enable-background="new 4 4.755 34 40.42" xml:space="preserve">
<polygon id="Banner" fill="#673090" points="4,4.755 4,45.176 21,40.646 38,45.176 38,4.755 "/>
<polygon id="H" fill="#FFFFFF" points="20.346,33.307 18.385,33.307 18.385,14.999 15.77,14.999 15.77,33.307 13.809,33.307 
	13.809,10.64 15.77,10.64 15.77,13.691 18.385,13.691 18.385,10.64 20.346,10.64 "/>
<polygon id="M" fill="#FFFFFF" points="28.628,33.307 26.448,33.307 26.448,13.786 25.141,15.102 23.833,13.786 23.833,33.307 
	21.872,33.307 21.872,10.64 24.182,10.64 25.495,11.955 26.81,10.64 28.628,10.64 "/>
</svg>
