<?xml version="1.0" encoding="utf-8"?>
<!-- Generator: Adobe Illustrator 16.0.4, SVG Export Plug-In . SVG Version: 6.00 Build 0)  -->
<!DOCTYPE svg PUBLIC "-//W3C//DTD SVG 1.1//EN" "http://www.w3.org/Graphics/SVG/1.1/DTD/svg11.dtd">
<svg version="1.1" id="Layer_1" xmlns="http://www.w3.org/2000/svg" xmlns:xlink="http://www.w3.org/1999/xlink" x="0px" y="0px"
	 width="331px" height="221px" viewBox="0 0 331 221" enable-background="new 0 0 331 221" xml:space="preserve">
<polygon id="Banner" fill="#662D91" points="7,8 7,193.455 85,172.677 163,193.455 163,8 "/>
<polygon id="H" fill="#FFFFFF" points="82,139 73,139 73,55 61,55 61,139 52,139 52,35 61,35 61,49 73,49 73,35 82,35 "/>
<polygon id="M" fill="#FFFFFF" points="120,139 110,139 110,49.437 104,55.471 98,49.437 98,139 89,139 89,35 99.59,35 
	105.623,41.034 111.657,35 120,35 "/>
<g id="HackMTY">
	<polygon fill="#FFFFFF" points="224.044,97.994 224.044,71.641 214.505,71.641 214.505,97.994 206.745,97.994 206.745,39.953 
		214.505,39.953 214.505,64.608 224.044,64.608 224.044,39.953 231.804,39.953 231.804,97.994 	"/>
	<path fill="#FFFFFF" d="M246.435,97.994h-7.76V49.896c0-6.628,3.099-9.943,9.296-9.943h5.82c6.197,0,9.296,3.315,9.296,9.943
		v48.098h-7.76v-21.26h-8.893V97.994z M255.327,69.701v-19.32c0-2.263-1.133-3.395-3.396-3.395h-2.101
		c-2.264,0-3.396,1.132-3.396,3.395v19.32H255.327z"/>
	<path fill="#FFFFFF" d="M293.157,84.414v3.718c0,6.576-3.1,9.862-9.296,9.862h-5.012c-6.197,0-9.297-3.286-9.297-9.862V49.816
		c0-6.575,3.1-9.862,9.297-9.862h5.012c6.196,0,9.296,3.287,9.296,9.862v6.547h-7.76v-5.981c0-2.264-1.16-3.396-3.477-3.396h-1.536
		c-2.049,0-3.071,1.132-3.071,3.396v37.185c0,2.263,1.022,3.395,3.071,3.395h1.94c2.048,0,3.072-1.132,3.072-3.395v-3.153H293.157z"
		/>
	<path fill="#FFFFFF" d="M306.979,97.994h-7.76V39.953h7.76V97.994z M324.845,97.994h-7.76l-9.701-28.374v-0.485l8.084-29.182h7.114
		l-8.165,28.859L324.845,97.994z"/>
	<polygon fill="#FFFFFF" points="222.509,137.373 229.703,103.26 238.271,103.26 238.271,161.301 230.512,161.301 231.32,123.309 
		225.5,150.792 219.518,150.792 213.698,123.309 214.506,161.301 206.746,161.301 206.746,103.26 215.315,103.26 	"/>
	<polygon fill="#FFFFFF" points="257.915,110.293 257.915,161.301 250.155,161.301 250.155,110.293 242.718,110.293 242.718,103.26 
		265.352,103.26 265.352,110.293 	"/>
	<polygon fill="#FFFFFF" points="284.266,161.301 276.506,161.301 276.506,139.96 266.967,103.261 274.647,103.261 280.467,128.481 
		280.709,128.481 285.964,103.261 293.644,103.261 284.266,139.96 	"/>
</g>
<g id="_x32_015">
	<path fill="#FFFFFF" d="M77.498,211.661v2.258h-6.776v-5.804c0-0.315,0.027-0.577,0.079-0.787c0.053-0.211,0.144-0.408,0.276-0.591
		c0.131-0.185,0.363-0.442,0.696-0.775l2.548-2.442c0.191-0.192,0.345-0.358,0.459-0.5c0.114-0.139,0.192-0.258,0.236-0.354
		c0.043-0.096,0.07-0.197,0.079-0.302c0.009-0.105,0.013-0.245,0.013-0.42v-3.493c0-0.735-0.359-1.104-1.077-1.104h-0.157
		c-0.718,0-1.077,0.368-1.077,1.104v1.942h-2.521v-2.1c0-2.154,1.006-3.23,3.02-3.23h1.313c2.013,0,3.021,1.076,3.021,3.23v4.516
		c0,0.352-0.049,0.657-0.145,0.921c-0.097,0.262-0.346,0.586-0.749,0.971l-2.784,2.679c-0.349,0.333-0.551,0.561-0.603,0.684
		c-0.053,0.122-0.084,0.243-0.092,0.367c-0.009,0.122-0.014,0.288-0.014,0.498v2.732H77.498z"/>
	<path fill="#FFFFFF" d="M83.195,213.919c-2.013,0-3.019-1.076-3.019-3.229v-12.396c0-2.154,1.006-3.23,3.019-3.23h1.76
		c2.013,0,3.02,1.076,3.02,3.23v12.396c0,2.153-1.007,3.229-3.02,3.229H83.195z M83.695,197.348c-0.666,0-0.998,0.368-0.998,1.104
		v12.079c0,0.736,0.376,1.103,1.129,1.103h0.63c0.665,0,0.999-0.366,0.999-1.103v-12.079c0-0.736-0.378-1.104-1.13-1.104H83.695z"/>
	<path fill="#FFFFFF" d="M90.13,199.239l-0.578-1.733c0.647-0.245,1.199-0.587,1.654-1.024s0.814-0.911,1.077-1.418h0.263
		l1.654,0.894v17.963h-2.495v-15.154L90.13,199.239z"/>
	<path fill="#FFFFFF" d="M96.563,209.507h2.521v1.024c0,0.736,0.332,1.104,0.998,1.104h0.289c0.753,0,1.129-0.367,1.129-1.104
		v-4.307c0-0.823-0.35-1.234-1.051-1.234h-3.807v-9.927h7.116v2.337h-4.753v5.305h1.996c2.014,0,3.02,1.112,3.02,3.335v4.544
		c0,2.224-1.006,3.335-3.02,3.335h-1.418c-2.013,0-3.02-1.066-3.02-3.204V209.507z"/>
</g>
</svg>
